<?xml version="1.0" encoding="UTF-8"?>
<svg xmlns="http://www.w3.org/2000/svg" width="1200" height="675" viewBox="0 0 1200 675" role="img" aria-label="Adventure Moment">
  <defs>
    <linearGradient id="g" x1="0" x2="1" y1="0" y2="1">
      <stop offset="0%" stop-color="#f7f0e6"/>
      <stop offset="100%" stop-color="#efe2d2"/>
    </linearGradient>
    <pattern id="chips" width="60" height="60" patternUnits="userSpaceOnUse">
      <circle cx="16" cy="18" r="6" fill="#3b2a1a" opacity="0.18"/>
      <circle cx="42" cy="36" r="7" fill="#3b2a1a" opacity="0.14"/>
      <circle cx="28" cy="48" r="5" fill="#3b2a1a" opacity="0.12"/>
    </pattern>
  </defs>

  <rect width="1200" height="675" fill="url(#g)"/>
  <rect width="1200" height="675" fill="url(#chips)"/>

  <g transform="translate(80,90)">
    <rect x="0" y="0" rx="24" ry="24" width="1040" height="495" fill="white" opacity="0.85"/>
    <rect x="0" y="0" rx="24" ry="24" width="1040" height="495" fill="none" stroke="#e7d7c6" stroke-width="4"/>
    <g transform="translate(58,70)">
      <text x="0" y="0" font-family="Arial, Helvetica, sans-serif" font-size="56" font-weight="800" fill="#3b2a1a">Adventure Moment</text>
      <text x="0" y="58" font-family="Arial, Helvetica, sans-serif" font-size="24" fill="#5a4632">Exploring together and having fun.</text>
      <g transform="translate(0,105)">
        <rect x="0" y="0" width="230" height="54" rx="14" fill="#3aa6b9" opacity="0.92"/>
        <text x="24" y="36" font-family="Arial, Helvetica, sans-serif" font-size="20" font-weight="700" fill="white">Cookie SMP</text>

        <g transform="translate(285,6)">
          <circle cx="22" cy="22" r="22" fill="#caa37a"/>
          <circle cx="14" cy="16" r="4" fill="#3b2a1a" opacity="0.55"/>
          <circle cx="28" cy="24" r="4.5" fill="#3b2a1a" opacity="0.55"/>
          <circle cx="18" cy="30" r="3.5" fill="#3b2a1a" opacity="0.55"/>
          <path d="M41,24 a18,18 0 0 1 -10,16" stroke="#e8d3b8" stroke-width="6" fill="none" stroke-linecap="round"/>
        </g>
      </g>

      <g transform="translate(0,220)">
        <rect x="0" y="0" width="924" height="190" rx="20" fill="#f7f0e6"/>
        <g transform="translate(26,34)">
          <text x="0" y="0" font-family="Arial, Helvetica, sans-serif" font-size="18" fill="#5a4632">Vanilla+ Survival • Friendly Community • Weekly Events</text>
          <text x="0" y="40" font-family="Arial, Helvetica, sans-serif" font-size="16" fill="#5a4632" opacity="0.9">This is a placeholder image you can replace with your own screenshots.</text>
          <text x="0" y="80" font-family="Arial, Helvetica, sans-serif" font-size="16" fill="#5a4632" opacity="0.9">Tip: Save a screenshot as JPG/PNG and keep the same file name.</text>
          <g transform="translate(0,110)">
            <rect x="0" y="0" width="180" height="44" rx="12" fill="#3b2a1a" opacity="0.9"/>
            <text x="18" y="28" font-family="Arial, Helvetica, sans-serif" font-size="16" font-weight="700" fill="white">Replace Me</text>
          </g>
        </g>
      </g>
    </g>
  </g>
</svg>
